<svg width="1197" height="1024" viewBox="0 0 1197 1024" fill="none" xmlns="http://www.w3.org/2000/svg" xmlns:xlink="http://www.w3.org/1999/xlink">
<use xlink:href="#stroke0_40_684" transform="translate(1171.56 136.55) scale(0.803798) rotate(-51.1396)"/>
<use xlink:href="#stroke0_40_684" transform="translate(1430.61 141.584) scale(0.855882) rotate(138.377)"/>
<use xlink:href="#stroke0_40_684" transform="translate(1349.19 143.505) scale(0.67101) rotate(137.552)"/>
<use xlink:href="#stroke0_40_684" transform="translate(1111.85 237.967) scale(0.59653) rotate(-93.6822)"/>
<use xlink:href="#stroke0_40_684" transform="translate(1050.76 182.986) scale(0.57133) rotate(-50.051)"/>
<use xlink:href="#stroke0_40_684" transform="translate(1076.31 285.305) scale(0.541167) rotate(-106.062)"/>
<use xlink:href="#stroke0_40_684" transform="translate(1206.26 328.171) scale(0.821412) rotate(175.881)"/>
<use xlink:href="#stroke0_40_684" transform="translate(1131.66 166.303) scale(0.55591) rotate(73.5526)"/>
<use xlink:href="#stroke0_40_684" transform="translate(975.774 287.389) scale(0.558873) rotate(-44.5299)"/>
<use xlink:href="#stroke0_40_684" transform="translate(1095.57 208.498) scale(0.6531) rotate(49.0846)"/>
<use xlink:href="#stroke0_40_684" transform="translate(1082.79 522.733) scale(0.774544) rotate(-135.302)"/>
<use xlink:href="#stroke0_40_684" transform="translate(932.876 427.337) scale(0.880973) rotate(-46.8195)"/>
<use xlink:href="#stroke0_40_684" transform="translate(1015.87 360.443) scale(0.836113) rotate(1.80875)"/>
<use xlink:href="#stroke0_40_684" transform="translate(1289.09 471.281) scale(0.81228) rotate(112.137)"/>
<use xlink:href="#stroke0_40_684" transform="translate(1149.94 407.723) scale(0.886192) rotate(35.6618)"/>
<use xlink:href="#stroke0_40_684" transform="translate(1296.57 621.074) scale(0.574891) rotate(134.777)"/>
<use xlink:href="#stroke0_40_684" transform="translate(1362.27 652.59) scale(0.841775) rotate(130.107)"/>
<use xlink:href="#stroke0_40_684" transform="translate(1163.51 853.526) scale(0.80994) rotate(-115.928)"/>
<use xlink:href="#stroke0_40_684" transform="translate(1259.01 646.173) scale(0.591928) rotate(57.4639)"/>
<use xlink:href="#stroke0_40_684" transform="translate(1201.9 656.351) scale(0.772857) rotate(27.0154)"/>
<use xlink:href="#stroke0_40_684" transform="translate(1204.65 996.893) scale(0.823414) rotate(-120.942)"/>
<use xlink:href="#stroke0_40_684" transform="translate(1375.42 824.145) scale(0.798136) rotate(102.874)"/>
<use xlink:href="#stroke0_40_684" transform="translate(1210.42 842.593) scale(0.534671) rotate(29.3571)"/>
<use xlink:href="#stroke0_40_684" transform="translate(1166.27 1135.2) scale(0.854877) rotate(-119.185)"/>
<use xlink:href="#stroke0_40_684" transform="translate(1098.16 913.479) scale(0.763871) rotate(3.94007)"/>
<use xlink:href="#stroke0_40_684" transform="translate(1204.47 1189.3) scale(0.712407) rotate(-156.878)"/>
<use xlink:href="#stroke0_40_684" transform="translate(1254.55 1030.1) scale(0.771132) rotate(106.462)"/>
<use xlink:href="#stroke0_40_684" transform="matrix(-0.651587 -0.4866 0.4866 -0.651587 1096.87 1273.79)"/>
<use xlink:href="#stroke0_40_684" transform="translate(982.418 1218.42) scale(0.527552) rotate(-101.16)"/>
<use xlink:href="#stroke0_40_684" transform="translate(1101.39 1095.23) scale(0.567444) rotate(104.936)"/>
<use xlink:href="#stroke0_40_684" transform="translate(1048.71 1274.18) scale(0.802901) rotate(-171.636)"/>
<use xlink:href="#stroke0_40_684" transform="translate(1021.29 1244.1) scale(0.763267) rotate(173.911)"/>
<use xlink:href="#stroke0_40_684" transform="translate(971.855 1175.39) scale(0.56175) rotate(149.859)"/>
<use xlink:href="#stroke0_40_684" transform="translate(859.125 1034.38) scale(0.540093) rotate(55.571)"/>
<use xlink:href="#stroke0_40_684" transform="translate(761.532 1015.61) scale(0.5855) rotate(19.9941)"/>
<use xlink:href="#stroke0_40_684" transform="translate(838.366 993.478) scale(0.639947) rotate(75.9095)"/>
<use xlink:href="#stroke0_40_684" transform="translate(764.262 1199.74) scale(0.735725) rotate(-146.229)"/>
<use xlink:href="#stroke0_40_684" transform="translate(641.728 938.497) scale(0.617193) rotate(1.74969)"/>
<use xlink:href="#stroke0_40_684" transform="translate(826.352 969.923) scale(0.690116) rotate(124.029)"/>
<use xlink:href="#stroke0_40_684" transform="translate(782.106 929.628) scale(0.541832) rotate(119.459)"/>
<use xlink:href="#stroke0_40_684" transform="translate(757.36 949.69) scale(0.527063) rotate(133.504)"/>
<use xlink:href="#stroke0_40_684" transform="translate(687.692 860.221) scale(0.614993) rotate(77.2935)"/>
<use xlink:href="#stroke0_40_684" transform="translate(739.612 949.978) scale(0.875715) rotate(131.275)"/>
<use xlink:href="#stroke0_40_684" transform="translate(605.01 853.219) scale(0.619433) rotate(83.8868)"/>
<use xlink:href="#stroke0_40_684" transform="translate(403.312 1058.5) scale(0.861476) rotate(-106.38)"/>
<use xlink:href="#stroke0_40_684" transform="translate(501.86 735.202) scale(0.84286) rotate(63.9393)"/>
<use xlink:href="#stroke0_40_684" transform="translate(320.2 869.849) scale(0.525866) rotate(-59.101)"/>
<use xlink:href="#stroke0_40_684" transform="translate(295.747 935.976) scale(0.836145) rotate(-98.6814)"/>
<use xlink:href="#stroke0_40_684" transform="translate(276.699 836.357) scale(0.639735) rotate(-81.3958)"/>
<use xlink:href="#stroke0_40_684" transform="translate(502.603 637.012) scale(0.881061) rotate(101.922)"/>
<use xlink:href="#stroke0_40_684" transform="translate(411.203 539.606) scale(0.7823) rotate(69.7026)"/>
<use xlink:href="#stroke0_40_684" transform="translate(233.462 515.274) scale(0.793491) rotate(-2.20784)"/>
<use xlink:href="#stroke0_40_684" transform="translate(230.206 463.766) scale(0.821044) rotate(-4.15678)"/>
<use xlink:href="#stroke0_40_684" transform="translate(494.269 556.71) scale(0.775785) rotate(147.733)"/>
<use xlink:href="#stroke0_40_684" transform="translate(199.814 428.232) scale(0.862911) rotate(-33.4849)"/>
<use xlink:href="#stroke0_40_684" transform="translate(404.791 522.526) scale(0.590378) rotate(-160.52)"/>
<use xlink:href="#stroke0_40_684" transform="translate(427.676 517.671) scale(0.86368) rotate(-166.477)"/>
<use xlink:href="#stroke0_40_684" transform="translate(203.468 345.92) scale(0.551847) rotate(-40.9423)"/>
<use xlink:href="#stroke0_40_684" transform="translate(217.983 440.988) scale(0.530149) rotate(-104.277)"/>
<use xlink:href="#stroke0_40_684" transform="translate(291.017 215.067) scale(0.831968) rotate(66.1767)"/>
<use xlink:href="#stroke0_40_684" transform="translate(141.885 525.062) scale(0.84776) rotate(-124.978)"/>
<use xlink:href="#stroke0_40_684" transform="translate(237.061 448.512) scale(0.718235) rotate(167.564)"/>
<use xlink:href="#stroke0_40_684" transform="translate(89.4859 249.125) scale(0.642913) rotate(46.4439)"/>
<use xlink:href="#stroke0_40_684" transform="translate(21.5179 240.22) scale(0.688661) rotate(35.0681)"/>
<use xlink:href="#stroke0_40_684" transform="translate(-75.6006 224.077) scale(0.83582) rotate(18.2134)"/>
<use xlink:href="#stroke0_40_684" transform="translate(-104.508 233.132) scale(0.741166) rotate(24.4859)"/>
<use xlink:href="#stroke0_40_684" transform="translate(-200.218 275.909) scale(0.684318) rotate(-3.84929)"/>
<use xlink:href="#stroke0_40_684" transform="translate(-262.107 370.945) scale(0.719611) rotate(-59.2469)"/>
<use xlink:href="#stroke0_40_684" transform="translate(-186.993 392.504) scale(0.577377) rotate(-104.347)"/>
<use xlink:href="#stroke0_40_684" transform="translate(-229.232 363.656) scale(0.783207) rotate(-93.1904)"/>
<use xlink:href="#stroke0_40_684" transform="translate(4.71886 278.496) scale(0.784409) rotate(161.755)"/>
<use xlink:href="#stroke0_40_684" transform="translate(-206.826 9.29951) scale(0.881884) rotate(12.7457)"/>
<use xlink:href="#stroke0_40_684" transform="translate(-204.404 170.931) scale(0.556596) rotate(-81.1948)"/>
<use xlink:href="#stroke0_40_684" transform="translate(-191.15 86.8704) scale(0.604737) rotate(-33.7998)"/>
<use xlink:href="#stroke0_40_684" transform="translate(-71.3724 18.7244) scale(0.527292) rotate(26.7084)"/>
<use xlink:href="#stroke0_40_684" transform="translate(-113.238 118.592) scale(0.551829) rotate(-48.8697)"/>
<use xlink:href="#stroke0_40_684" transform="translate(162.533 170.23) scale(0.744219) rotate(155.2)"/>
<use xlink:href="#stroke0_40_684" transform="translate(24.5883 30.4724) scale(0.530715) rotate(13.6649)"/>
<use xlink:href="#stroke0_40_684" transform="translate(146.505 24.6065) scale(0.539528) rotate(65.1614)"/>
<use xlink:href="#stroke0_40_684" transform="translate(283.833 60.9233) scale(0.770899) rotate(109.889)"/>
<use xlink:href="#stroke0_40_684" transform="translate(151.909 -8.42827) scale(0.663216) rotate(22.7309)"/>
<use xlink:href="#stroke0_40_684" transform="translate(169.844 13.9773) scale(0.595288) rotate(7.34196)"/>
<use xlink:href="#stroke0_40_684" transform="translate(370.573 77.3557) scale(0.543424) rotate(117.28)"/>
<use xlink:href="#stroke0_40_684" transform="translate(239.293 215.901) scale(0.70011) rotate(-103.985)"/>
<use xlink:href="#stroke0_40_684" transform="translate(374.054 212.072) scale(0.566607) rotate(-148.923)"/>
<use xlink:href="#stroke0_40_684" transform="translate(484.523 84.9871) scale(0.538355) rotate(116.324)"/>
<use xlink:href="#stroke0_40_684" transform="translate(371.168 32.3798) scale(0.561874) rotate(15.4776)"/>
<use xlink:href="#stroke0_40_684" transform="translate(369.084 219.604) scale(0.595214) rotate(-89.186)"/>
<use xlink:href="#stroke0_40_684" transform="translate(382.077 280.976) scale(0.842861) rotate(-93.0242)"/>
<use xlink:href="#stroke0_40_684" transform="translate(401.112 123.187) scale(0.815389) rotate(-17.9097)"/>
<use xlink:href="#stroke0_40_684" transform="translate(652.778 150.732) scale(0.651194) rotate(89.1066)"/>
<use xlink:href="#stroke0_40_684" transform="translate(649.336 343.577) scale(0.536008) rotate(178.897)"/>
<use xlink:href="#stroke0_40_684" transform="translate(635.926 190.525) scale(0.663814) rotate(64.0119)"/>
<use xlink:href="#stroke0_40_684" transform="translate(698.462 390.08) scale(0.561726) rotate(158.012)"/>
<use xlink:href="#stroke0_40_684" transform="translate(503.371 312.618) scale(0.680433) rotate(-13.385)"/>
<use xlink:href="#stroke0_40_684" transform="translate(447.786 452.17) scale(0.87768) rotate(-53.456)"/>
<use xlink:href="#stroke0_40_684" transform="translate(533.427 547.559) scale(0.542078) rotate(-88.8313)"/>
<use xlink:href="#stroke0_40_684" transform="translate(530.835 628.089) scale(0.701764) rotate(-102.343)"/>
<use xlink:href="#stroke0_40_684" transform="translate(687.365 683.742) scale(0.774017) rotate(-173.674)"/>
<use xlink:href="#stroke0_40_684" transform="translate(624.168 491.278) scale(0.658756) rotate(57.7293)"/>
<use xlink:href="#stroke0_40_684" transform="translate(766.044 656.737) scale(0.855495) rotate(132.415)"/>
<use xlink:href="#stroke0_40_684" transform="translate(734.662 736.894) scale(0.662844) rotate(169.832)"/>
<use xlink:href="#stroke0_40_684" transform="translate(575.763 550.824) scale(0.730982) rotate(-3.84868)"/>
<use xlink:href="#stroke0_40_684" transform="translate(783.319 787.049) scale(0.815465) rotate(-159.17)"/>
<use xlink:href="#stroke0_40_684" transform="translate(730.57 559.783) scale(0.55422) rotate(22.3211)"/>
<use xlink:href="#stroke0_40_684" transform="translate(779.605 795.773) scale(0.635764) rotate(-127.38)"/>
<use xlink:href="#stroke0_40_684" transform="translate(965.871 615.122) scale(0.852661) rotate(96.9858)"/>
<use xlink:href="#stroke0_40_684" transform="translate(775.111 856.859) scale(0.746456) rotate(-96.5269)"/>
<use xlink:href="#stroke0_40_684" transform="translate(900.448 935.684) scale(0.760372) rotate(-141.413)"/>
<use xlink:href="#stroke0_40_684" transform="translate(973.954 921.839) scale(0.593774) rotate(-174.735)"/>
<use xlink:href="#stroke0_40_684" transform="translate(865.763 738.75) scale(0.773969) rotate(20.2938)"/>
<use xlink:href="#stroke0_40_684" transform="translate(1049.12 934.196) scale(0.558631) rotate(153.225)"/>
<use xlink:href="#stroke0_40_684" transform="translate(1076.29 767.571) scale(0.760583) rotate(82.7824)"/>
<use xlink:href="#stroke0_40_684" transform="translate(934.5 942.319) scale(0.636316) rotate(-108.606)"/>
<use xlink:href="#stroke0_40_684" transform="translate(985.279 681.582) scale(0.616224) rotate(44.7122)"/>
<use xlink:href="#stroke0_40_684" transform="translate(998.38 866.021) scale(0.573787) rotate(-151.736)"/>
<use xlink:href="#stroke0_40_684" transform="translate(884.812 856.408) scale(0.821665) rotate(-109.624)"/>
<use xlink:href="#stroke0_40_684" transform="matrix(0.480893 -0.24373 0.24373 0.480893 845.739 642.597)"/>
<use xlink:href="#stroke0_40_684" transform="translate(867.901 768.726) scale(0.723683) rotate(-114.237)"/>
<use xlink:href="#stroke0_40_684" transform="translate(1018.24 555.588) scale(0.677423) rotate(110.914)"/>
<use xlink:href="#stroke0_40_684" transform="translate(723.444 568.975) scale(0.827593) rotate(-50.6517)"/>
<use xlink:href="#stroke0_40_684" transform="translate(959.305 470.874) scale(0.564538) rotate(106.804)"/>
<use xlink:href="#stroke0_40_684" transform="translate(905.358 365.67) scale(0.667912) rotate(67.9679)"/>
<use xlink:href="#stroke0_40_684" transform="translate(734.627 489.988) scale(0.633277) rotate(-72.3409)"/>
<use xlink:href="#stroke0_40_684" transform="translate(937.224 300.708) scale(0.738319) rotate(89.8893)"/>
<use xlink:href="#stroke0_40_684" transform="translate(843.768 248.804) scale(0.562787) rotate(50.05)"/>
<use xlink:href="#stroke0_40_684" transform="translate(890.891 227.886) scale(0.574582) rotate(76.9491)"/>
<use xlink:href="#stroke0_40_684" transform="translate(826.318 180.732) scale(0.537155) rotate(42.3108)"/>
<use xlink:href="#stroke0_40_684" transform="translate(734.359 315.704) scale(0.591773) rotate(-85.5276)"/>
<use xlink:href="#stroke0_40_684" transform="translate(658.62 173.861) scale(0.86522) rotate(-38.0824)"/>
<use xlink:href="#stroke0_40_684" transform="translate(847.913 34.927) scale(0.630822) rotate(53.0931)"/>
<use xlink:href="#stroke0_40_684" transform="translate(959.09 103.047) scale(0.626141) rotate(127.204)"/>
<use xlink:href="#stroke0_40_684" transform="translate(957.106 187.538) scale(0.756364) rotate(-176.868)"/>
<use xlink:href="#stroke0_40_684" transform="translate(996.147 44.3505) scale(0.536561) rotate(130.706)"/>
<use xlink:href="#stroke0_40_684" transform="translate(829.827 -49.0919) scale(0.662662) rotate(-8.77418)"/>
<use xlink:href="#stroke0_40_684" transform="translate(847.023 12.558) scale(0.611131) rotate(-50.1852)"/>
<use xlink:href="#stroke0_40_684" transform="translate(953.593 -173.994) scale(0.853132) rotate(25.6865)"/>
<use xlink:href="#stroke0_40_684" transform="translate(1188.47 9.98837) scale(0.822684) rotate(155.805)"/>
<use xlink:href="#stroke0_40_684" transform="translate(957.324 -6.94622) scale(0.793482) rotate(-76.348)"/>
<use xlink:href="#stroke0_40_684" transform="matrix(0.74778 -0.210368 0.210368 0.74778 1005.25 -184.03)"/>
<use xlink:href="#stroke0_40_684" transform="translate(1067.61 -123.69) scale(0.53988) rotate(-46.7677)"/>
<use xlink:href="#stroke0_40_684" transform="translate(1154.7 -222.198) scale(0.575155) rotate(15.1666)"/>
<use xlink:href="#stroke0_40_684" transform="translate(1291.04 -30.9532) scale(0.566701) rotate(-164.528)"/>
<use xlink:href="#stroke0_40_684" transform="translate(1191.55 -39.0915) scale(0.661311) rotate(-91.2475)"/>
<use xlink:href="#stroke0_40_684" transform="translate(1485.5 -140.291) scale(0.867982) rotate(125.257)"/>
<use xlink:href="#stroke0_40_684" transform="translate(1300.15 -179.469) scale(0.581151) rotate(30.8272)"/>
<use xlink:href="#stroke0_40_684" transform="translate(1314.5 113.438) scale(0.756396) rotate(-133.743)"/>
<use xlink:href="#stroke0_40_684" transform="translate(1220.71 -30.4454) scale(0.5907) rotate(-23.6295)"/>
<use xlink:href="#stroke0_40_684" transform="translate(1435.11 -21.0371) scale(0.720823) rotate(98.2823)"/>
<use xlink:href="#stroke0_40_684" transform="translate(1449.71 125.498) scale(0.683061) rotate(143.668)"/>
<use xlink:href="#stroke0_40_684" transform="translate(1246.64 -21.8513) scale(0.881058) rotate(15.532)"/>
<defs>
<g id="stroke0_40_684" data-figma-scatter-ref="stroke0_40_684_ref" data-figma-scatter="f0.25_w0_aj180_sj0.3_r0_s0_sw189">
<path d="M161.622 271.62C162.801 270.44 165.001 270.908 165.598 272.466C166.28 274.243 164.308 276.953 162.333 276.953C160.932 276.952 160.386 272.855 161.622 271.62ZM125.347 271.526C126.214 268.071 129.955 267.913 129.955 271.331C129.955 274.319 127.339 276.737 125.786 275.184C125.188 274.586 124.991 272.944 125.347 271.526ZM90.9548 269.953C92.4998 269.953 93.222 272.086 92.068 273.24C90.688 274.62 88.3711 272.708 89.4011 271.04C89.771 270.442 90.4698 269.953 90.9548 269.953ZM141.512 256.176C145.165 250.962 153.033 256.131 149.547 261.453C147.571 264.469 144.663 264.661 141.955 261.953C139.547 259.545 139.508 259.036 141.512 256.176ZM73.2048 251.23C75.5376 250.164 78.9543 251.195 78.9548 252.965C78.9548 254.503 74.0936 257.221 72.4626 256.595C70.1919 255.723 70.6521 252.397 73.2048 251.23ZM179.586 250.7C181.676 246.659 184.455 247.382 184.455 251.967C184.455 254.88 184.063 255.508 182.068 255.79C178.812 256.251 177.794 254.165 179.586 250.7ZM110.955 251.953C112.5 251.953 113.222 254.086 112.068 255.24C110.688 256.62 108.371 254.708 109.401 253.04C109.771 252.442 110.47 251.953 110.955 251.953ZM125.484 235.308C127.968 233.492 129.882 233.6 130.649 235.599C131.313 237.329 128.652 239.953 126.232 239.953C123.969 239.953 123.459 236.79 125.484 235.308ZM56.4548 232.953C58.3068 232.953 60.1711 235.593 59.7741 237.655C59.5331 238.905 58.5208 239.453 56.4548 239.453C53.15 239.453 51.913 236.914 53.9948 234.405C54.6577 233.606 55.7648 232.953 56.4548 232.953ZM160.318 235.45C161.227 233.081 165.455 233.896 165.455 236.439C165.455 238.645 162.346 239.744 160.716 238.114C160.151 237.549 159.972 236.351 160.318 235.45ZM196.198 234.11C197.852 232.456 202.454 233.054 202.455 234.923C202.455 236.69 198.218 238.991 196.312 238.261C194.617 237.61 194.566 235.742 196.198 234.11ZM90.9548 234.953C91.5047 234.953 91.9547 235.403 91.9548 235.953C91.9548 236.503 91.5048 236.953 90.9548 236.953C90.4049 236.953 89.9548 236.503 89.9548 235.953C89.9548 235.403 90.4049 234.953 90.9548 234.953ZM71.5514 214.259C74.027 212.449 74.6796 212.586 77.6345 215.541C81.1173 219.024 78.0602 223.076 73.2272 221.384C69.8362 220.196 68.8974 216.2 71.5514 214.259ZM34.9665 215.44C37.4415 212.458 42.9548 214.246 42.9548 218.031C42.9548 220.921 40.2601 222.413 37.3972 221.109C34.3162 219.705 33.3325 217.409 34.9665 215.44ZM179.159 214.523C181.95 212.567 185.454 214.484 185.455 217.966C185.455 221.094 183.104 222.358 179.705 221.057C176.335 219.766 176.077 216.681 179.159 214.523ZM214.155 215.153C216.556 212.752 221.955 214.69 221.955 217.953C221.955 220.669 218.715 222.192 215.52 220.978C212.789 219.94 212.14 217.168 214.155 215.153ZM107.319 217.446C108.12 215.36 111.324 215.917 111.767 218.219C112.165 220.284 109.278 221.677 107.755 220.153C107.169 219.567 106.973 218.349 107.319 217.446ZM143.431 216.992C144.483 215.289 148.382 216.176 148.769 218.206C148.952 219.17 148.36 220.245 147.451 220.594C145.466 221.355 142.421 218.627 143.431 216.992ZM123.155 197.153C125.911 194.397 132.955 197.004 132.955 200.779C132.955 203.022 129.938 205.953 127.629 205.953C123.218 205.953 120.231 200.077 123.155 197.153ZM231.155 197.153C233.347 194.961 237.885 195.705 239.141 198.463C240.423 201.275 237.199 205.953 233.981 205.953C230.36 205.953 228.414 199.894 231.155 197.153ZM53.0827 197.007C60.5555 193.946 64.7518 201.175 57.5075 204.629C53.4156 206.581 52.3072 205.961 51.3513 201.185C50.8033 198.446 51.0548 197.838 53.0827 197.007ZM196.205 196.962C197.443 196.453 199.58 196.13 200.955 196.244C205.799 196.649 204.127 203.891 198.873 205.265C194.383 206.438 191.907 198.732 196.205 196.962ZM160.564 197.487C163.37 194.681 166.955 196.37 166.955 200.498C166.955 203.092 163.864 206.133 162.245 205.132C159.905 203.686 158.907 199.144 160.564 197.487ZM88.5593 199.108C90.4402 196.423 92.1249 196.379 94.4548 198.953C96.2018 200.883 96.2018 201.023 94.4548 202.953C90.7188 207.081 85.4033 203.614 88.5593 199.108ZM18.2048 196.615C21.6617 195.22 24.3307 197.341 23.7819 201.046C23.2719 204.483 20.1722 205.903 18.3962 203.513C16.6233 201.125 16.517 197.296 18.2048 196.615ZM177.574 178.242C182.074 174.952 188.12 178.726 186.369 183.733C185.322 186.727 180.908 187.989 178.493 185.984C176.118 184.014 175.604 179.682 177.574 178.242ZM213.622 178.62C214.727 177.515 219.471 177.87 220.755 179.153C222.641 181.039 222.168 184.768 219.888 185.989C215.974 188.084 210.544 181.697 213.622 178.62ZM72.0075 181.391C73.1314 180.037 73.4588 180.028 74.7555 181.325C76.4955 183.065 75.6838 185.953 73.4548 185.953C71.31 185.953 70.4556 183.26 72.0075 181.391ZM106.155 179.153C107.61 177.698 109.02 177.648 112.39 178.929C116.93 180.655 115.094 185.953 109.955 185.953C105.588 185.953 103.354 181.954 106.155 179.153ZM143.339 180.395C144.582 177.156 149.462 180.083 148.774 183.655C148.301 186.112 143.609 186.104 143.134 183.645C142.943 182.651 143.035 181.188 143.339 180.395ZM35.3386 180.395C36.0985 178.414 40.8669 178.56 41.6462 180.589C42.5552 182.958 40.613 185.453 37.86 185.453C35.4112 185.453 34.2738 183.17 35.3386 180.395ZM249.136 180.234C249.767 179.474 251.447 178.987 252.869 179.152C256.507 179.575 256.625 184.287 253.011 184.798C249.914 185.235 247.422 182.3 249.136 180.234ZM1.62176 179.62C2.75172 178.489 3.84231 178.873 4.85028 180.757C6.07525 183.045 4.65825 185.437 2.55633 184.63C0.953362 184.015 0.367857 180.874 1.62176 179.62ZM195.155 161.153C199.2 157.108 205.563 162.129 203.137 167.453C200.971 172.208 193.955 170.297 193.955 164.953C193.955 163.523 194.495 161.813 195.155 161.153ZM122.99 161.888C125.209 157.743 133.337 161.845 132.76 166.819C132.498 169.085 131.921 169.497 128.635 169.768C122.714 170.255 120.308 166.899 122.99 161.888ZM159.2 162.108C160.917 160.391 166.018 161.077 167.349 163.203C168.87 165.631 167.004 168.364 163.544 168.775C158.898 169.328 156.169 165.139 159.2 162.108ZM17.8679 163.847C20.8558 161.398 23.3531 161.759 23.7731 164.704C24.2421 167.99 19.5737 170.013 17.1677 167.566C15.5488 165.919 15.5872 165.716 17.8679 163.847ZM53.3181 164.45C54.2271 162.081 58.4548 162.896 58.4548 165.439C58.4546 167.645 55.3465 168.744 53.7165 167.114C53.1515 166.549 52.972 165.351 53.3181 164.45ZM90.4011 165.04C91.191 163.762 92.6307 163.62 93.3298 164.751C94.2917 166.307 92.1385 168.536 90.8845 167.282C90.2495 166.647 90.0321 165.638 90.4011 165.04ZM233.455 164.953C233.939 164.17 234.514 164.112 235.181 164.779C235.731 165.329 235.854 166.307 235.455 166.953C234.971 167.736 234.396 167.794 233.729 167.127C233.179 166.577 233.056 165.599 233.455 164.953ZM72.155 143.153C74.201 141.107 75.9215 141.814 77.6335 145.405C79.4463 149.206 78.3548 151.953 75.0329 151.953C71.365 151.953 69.3911 145.917 72.155 143.153ZM140.99 143.888C143.209 139.743 151.337 143.845 150.76 148.819C150.498 151.085 149.921 151.497 146.635 151.768C140.714 152.255 138.308 148.899 140.99 143.888ZM214.371 144.31C215.315 141.85 219.296 143.115 220.383 146.22C221.148 148.402 220.991 149.346 219.635 150.702C216.554 153.783 212.585 148.965 214.371 144.31ZM104.622 142.62C105.751 141.49 112.484 141.883 113.755 143.153C116.971 146.369 114.013 150.953 108.721 150.953C104.846 150.953 102.025 145.217 104.622 142.62ZM248.622 142.62C251.659 139.582 258.199 144.269 256.629 148.359C255.819 150.469 251.281 151.469 249.442 149.942C247.938 148.694 247.395 143.847 248.622 142.62ZM35.155 143.153C36.8479 141.46 39.9777 141.664 42.1257 143.608C44.6817 145.921 44.4038 148.791 41.4958 150.116C36.8629 152.227 31.7242 146.584 35.155 143.153ZM178.001 143.398C180.63 140.23 185.955 142.327 185.955 146.531C185.955 149.786 183.572 151.325 180.239 150.22C177.156 149.198 176.032 145.771 178.001 143.398ZM1.18426 144.124C2.95012 142.358 5.40436 143.125 5.75262 145.551C6.10859 148.031 3.58934 150.41 1.46844 149.597C-0.35556 148.897 -0.51474 145.823 1.18426 144.124ZM125.522 126.879C128.986 123.051 132.286 125.737 130.077 130.585C129.266 132.364 128.29 132.997 126.706 132.771C123.867 132.366 123.266 129.372 125.522 126.879ZM90.9548 125.953C92.4118 125.953 94.1733 128.943 93.5983 130.44C93.2793 131.272 92.0897 131.953 90.9548 131.953C88.4109 131.953 87.3045 129.442 88.9665 127.44C89.6443 126.623 90.5397 125.953 90.9548 125.953ZM231.291 128.52C232.202 126.145 235.955 126.518 235.955 128.984C235.955 131.343 233.31 132.708 231.755 131.153C231.169 130.567 230.96 129.382 231.291 128.52ZM53.3386 125.395C54.5816 122.156 59.4621 125.083 58.7741 128.655C58.3011 131.112 53.6088 131.104 53.1345 128.645C52.9435 127.651 53.0347 126.187 53.3386 125.395ZM196.339 125.395C197.582 122.156 202.462 125.083 201.774 128.655C201.301 131.112 196.609 131.104 196.134 128.645C195.943 127.651 196.035 126.187 196.339 125.395ZM18.7048 123.033C21.1938 121.583 21.6583 121.691 23.3513 124.108C26.093 128.023 21.5169 132.115 18.155 128.753C16.4142 127.012 16.684 124.21 18.7048 123.033ZM161.551 123.259C163.914 121.531 164.32 121.594 166.508 124.013C168.958 126.719 167.37 129.453 163.346 129.453C159.801 129.453 158.626 125.398 161.551 123.259ZM176.792 108.412C178.282 105.142 183.179 105.008 185.398 108.176C187.404 111.039 187.359 112.233 185.143 114.97C181.634 119.302 174.413 113.633 176.792 108.412ZM35.1979 107.11C38.6209 103.687 45.9262 109.585 43.3542 113.694C42.0142 115.835 37.3673 116.54 35.3952 114.903C33.6272 113.436 33.51 108.798 35.1979 107.11ZM106.155 108.153C109.274 105.034 116.569 109.157 114.312 112.763C113.008 114.846 108.341 115.518 106.395 113.903C104.642 112.449 104.531 109.777 106.155 108.153ZM248.885 109.537C251.5 106.388 256.541 108.671 255.774 112.655C255.536 113.889 254.525 114.453 252.55 114.453C248.965 114.453 246.996 111.813 248.885 109.537ZM72.7048 108.014C75.4777 106.366 78.4171 107.183 78.7741 109.701C79.1151 112.099 74.9529 114.55 72.2829 113.525C70.3741 112.793 70.6471 109.236 72.7048 108.014ZM215.577 108.24C217.848 106.579 219.901 106.913 221.325 109.175C222.736 111.415 221.245 112.962 217.404 113.243C213.892 113.5 212.731 110.321 215.577 108.24ZM1.36395 110.329C1.86393 109.025 2.29819 108.896 3.18817 109.786C4.07716 110.675 4.07356 111.235 3.17156 112.137C1.6438 113.664 0.517033 112.537 1.36395 110.329ZM142.401 110.04C143.42 108.392 146.955 108.737 146.955 110.484C146.955 111.327 146.25 112.286 145.388 112.617C143.507 113.339 141.456 111.569 142.401 110.04ZM198.332 89.7538C199.769 88.8208 202.955 91.7971 202.955 94.0731C202.955 95.0681 202.085 96.3478 201.021 96.9179C195.912 99.6518 193.399 92.9558 198.332 89.7538ZM53.9899 90.8876C55.8619 87.3906 59.9547 89.2641 59.9548 93.6181C59.9548 96.521 56.4363 98.597 54.3913 96.9003C52.6944 95.4924 52.5651 93.5514 53.9899 90.8876ZM124.949 91.4599C126.748 89.2921 129.384 89.9791 129.775 92.7177C130.185 95.5927 127.358 96.7845 125.213 94.6405C123.886 93.3125 123.842 92.7938 124.949 91.4599ZM89.9548 92.453C89.9548 91.5361 90.439 90.9484 91.03 91.1454C91.6209 91.3424 92.1051 91.9311 92.1052 92.453C92.1052 92.975 91.621 93.5646 91.03 93.7616C90.439 93.9584 89.9548 93.3699 89.9548 92.453ZM106.012 73.8466C107.322 71.3997 110.172 71.4303 112.421 73.9159C114.452 76.1589 113.962 78.3446 111.082 79.8856C108.331 81.3569 104.461 76.7474 106.012 73.8466ZM71.7048 71.0331C74.3617 69.4851 75.3919 69.7252 77.9968 72.4979C80.7467 75.4249 79.87 78.213 76.0202 78.7831C71.4303 79.4631 67.953 73.2192 71.7048 71.0331ZM178.705 71.0331C181.256 69.5472 182.435 69.7213 184.38 71.871C188.234 76.1299 184.175 80.7468 179.008 77.9813C176.476 76.6264 176.293 72.4382 178.705 71.0331ZM214.155 72.1532C216.97 69.3383 222.522 71.8079 221.788 75.5477C221.237 78.3477 218.469 79.5078 215.533 78.1698C212.799 76.9248 212.163 74.1451 214.155 72.1532ZM34.9665 72.4403C36.6944 70.3586 40.3146 70.5883 42.4206 72.9159C45.6806 76.5179 42.054 80.2297 37.363 78.0927C34.3142 76.7037 33.3375 74.4023 34.9665 72.4403ZM143.955 74.452C145.696 72.3551 148.455 72.9691 148.455 75.453C148.455 77.662 145.336 78.7338 143.691 77.0888C142.956 76.3538 143.035 75.5609 143.955 74.452ZM91.4548 52.953C93.1596 52.953 95.0944 53.4933 95.7546 54.1532C98.5466 56.9452 95.7296 62.953 91.6286 62.953C87.2179 62.9526 84.2312 57.0771 87.155 54.1532C87.8149 53.4932 89.7498 52.9531 91.4548 52.953ZM123.2 54.1083C125.267 52.0413 129.919 53.1572 131.727 56.1522C134.87 61.3581 127.017 65.7348 123.512 60.7304C121.632 58.0474 121.526 55.7823 123.2 54.1083ZM234.455 52.953C238.789 52.953 240.43 57.6659 237.3 61.1239C235.255 63.3829 234.127 63.4187 231.784 61.2977C229.695 59.4067 229.388 55.9202 231.155 54.1532C231.815 53.4933 233.3 52.9531 234.455 52.953ZM53.2048 53.9618C59.9138 51.1998 63.8957 56.4948 58.3747 60.8368C54.8289 63.6256 53.1163 63.5071 51.9304 60.3886C50.4444 56.4786 50.7419 54.9758 53.2048 53.9618ZM160.564 54.4872C163.37 51.6813 166.955 53.3701 166.955 57.4979C166.955 60.0919 163.864 63.1327 162.245 62.1317C159.905 60.6855 158.907 56.1441 160.564 54.4872ZM195.587 54.2323C198.69 51.9604 203.399 52.9831 203.752 56.0048C204.176 59.6408 200.641 62.5122 196.284 62.0712C194.057 61.8459 193.515 55.7487 195.587 54.2323ZM17.3473 55.3749C18.0766 53.4732 21.3902 53.5672 23.0251 55.537C24.5491 57.374 23.2487 60.2546 20.6647 60.7636C18.8228 61.126 16.5544 57.4408 17.3473 55.3749ZM106.155 36.1532C107.628 34.6802 109.479 34.6282 112.021 35.9882C115.627 37.9182 113.772 42.953 109.455 42.953C105.545 42.9528 103.522 38.7862 106.155 36.1532ZM177.155 35.1532C178.855 33.4532 183.471 33.6656 185.005 35.5136C188.37 39.5695 181.517 45.325 177.395 41.9032C175.645 40.4512 175.515 36.7932 177.155 35.1532ZM35.9948 36.4052C37.4888 34.6052 39.0418 34.5655 41.3727 36.2694C43.4967 37.8224 43.1708 40.7877 40.7048 42.3407C37.2398 44.5227 33.338 39.6062 35.9948 36.4052ZM71.155 36.1532C73.9848 33.3233 79.3609 36.035 78.8005 40.0087C78.5425 41.8396 77.7501 42.5343 75.6452 42.7753C70.9402 43.3153 68.1341 39.1742 71.155 36.1532ZM144.168 37.1415C145.639 35.6695 146.962 36.0172 148.367 38.244C149.929 40.72 146.723 43.835 144.505 41.995C142.643 40.4492 142.527 38.7813 144.168 37.1415ZM214.033 37.3593C215.127 36.0413 215.465 36.0355 216.737 37.3075C218.339 38.9095 217.62 40.953 215.455 40.953C213.373 40.9529 212.623 39.0582 214.033 37.3593ZM195.979 22.9296C199.6 19.3086 204.362 21.486 203.791 26.5018C203.483 29.2058 203.13 29.453 199.57 29.453C194.623 29.453 192.788 26.1205 195.979 22.9296ZM122.99 18.8876C125.233 14.6976 132.366 18.4534 131.789 23.5214C131.523 25.8602 130.909 26.5165 128.754 26.7655C123.152 27.4112 120.424 23.6833 122.99 18.8876ZM54.11 19.5575C58.552 16.4465 62.0997 21.7018 58.0378 25.3778C56.5088 26.7618 55.6998 26.8869 54.0378 25.9979C51.3411 24.5539 51.3753 21.4734 54.11 19.5575ZM163.455 17.953C166.798 17.953 168.127 23.2547 165.179 24.8329C161.481 26.8119 158.169 22.1392 161.155 19.1532C161.815 18.4933 162.85 17.9532 163.455 17.953ZM91.9548 21.953C92.5047 21.953 92.9547 22.4031 92.9548 22.953C92.9548 23.503 92.5048 23.953 91.9548 23.953C91.4049 23.9529 90.9548 23.5029 90.9548 22.953C90.9548 22.4032 91.4049 21.9532 91.9548 21.953ZM107.061 1.75477C108.525 -0.979662 111.39 -0.0898075 111.772 3.21669C112.171 6.67755 109.3 8.145 107.349 5.47743C106.397 4.17543 106.317 3.14477 107.061 1.75477ZM142.264 1.58876C143.043 -0.437771 147.288 -0.554549 148.915 1.40517C150.968 3.87805 149.761 6.45278 146.55 6.45302C143.362 6.45302 141.297 4.10976 142.264 1.58876Z" fill="#061A40"/>
</g>
<path id="stroke0_40_684_ref" d="M1323 126H1233.3C1233.21 126.056 1233.13 126.112 1233.05 126.169C1214.19 138.978 1189.57 156.084 1163.41 174.163C1137.8 191.861 1110.81 210.417 1088.94 224.9C1084.18 228.047 1079.45 231.144 1074.86 234.103C1080.53 269.292 1081.81 296.789 1082.09 318.236C1082.16 323.656 1082.16 328.629 1082.16 332.606C1082.16 336.866 1082.17 339.683 1082.2 342.185C1082.23 343.682 1082.26 344.689 1082.28 345.293C1087.3 376.592 1090.14 391.86 1095.24 414.671C1097.63 425.384 1109.24 457.949 1120.1 480.737C1125.34 491.722 1129.69 500.09 1133.12 506.206C1134.82 509.239 1136.2 511.536 1137.23 513.192C1137.74 514.011 1138.14 514.625 1138.43 515.053C1138.57 515.263 1138.68 515.42 1138.75 515.527C1138.79 515.576 1138.81 515.613 1138.83 515.638L1138.86 515.674L1138.86 515.676L1139.89 517.119L1139.89 517.122C1160.2 545.72 1172.8 578.046 1180.28 596.486L1181.7 599.984L1181.71 599.989L1182.52 601.983L1182.52 601.988C1184.36 606.59 1185.79 610.657 1186.88 613.864C1187.93 616.966 1189.15 620.783 1189.57 622.077C1190.66 625.423 1191.39 627.553 1192.6 630.467C1208.06 667.914 1225 732.34 1238.28 782.599C1248.3 820.552 1249.17 847.835 1247.47 875.943V875.945L1247.3 878.66V878.663C1244.96 914.415 1232.56 947.792 1221.43 971.007C1215.86 982.619 1210.6 991.706 1207.04 997.297C1205.27 1000.08 1203.91 1002.03 1203.14 1002.98C1202.95 1003.22 1202.77 1003.42 1202.62 1003.57C1202.55 1003.63 1202.44 1003.74 1202.3 1003.82C1202.29 1003.82 1202.28 1003.83 1202.28 1003.83C1192.61 1021.46 1182.55 1034.88 1174.1 1045.09C1170.15 1049.85 1166.31 1054.19 1164.22 1056.57C1161.68 1059.46 1160.94 1060.34 1160.54 1060.84C1134.75 1092.83 1096.92 1112.22 1090.61 1115.49L1089.78 1115.93C1066.78 1129.29 1043.79 1138.71 1017.19 1143.71C999.163 1147.1 977.317 1148.21 968.972 1148.76L967.482 1148.87L967.481 1148.87C950.469 1150.15 932.552 1150.27 916.716 1149.6C903.862 1149.05 883.47 1147.68 864.393 1142.98L864.387 1142.98L862.555 1142.52L862.55 1142.52C832.37 1134.71 808.527 1120.93 788.057 1106.88C757.819 1086.11 738.627 1058.19 729.651 1044.54C723.845 1035.7 714.554 1020.04 710.105 1012.49L707.571 1008.19C697.807 992.307 691.589 977.082 688.088 968.065C686.321 963.516 684.594 958.796 683.687 956.347C683.147 954.891 682.77 953.889 682.463 953.089C682.311 952.695 682.204 952.421 682.135 952.247C682.1 952.16 682.075 952.098 682.059 952.059C682.051 952.039 682.045 952.025 682.041 952.016C682.039 952.011 682.038 952.008 682.037 952.006V952.004C682.037 952.004 682.036 952.003 682.035 952C680.735 948.886 679.163 945.209 677.409 941.006C594.471 978.502 520.912 938.967 506.477 931.048C484.266 918.864 466.83 904.014 454.511 893.193C436.002 876.935 423.561 858.575 417.882 850.063C414.641 845.206 411.328 839.987 409.369 836.931C407.023 833.271 405.596 831.096 404.428 829.413C387.777 805.427 380.48 781.293 377.573 771.688C376.752 768.976 375.954 766.228 375.465 764.555C374.891 762.593 374.559 761.474 374.282 760.583C374.279 760.573 374.276 760.562 374.271 760.545C374.27 760.542 374.269 760.539 374.268 760.536C363.603 735.94 355.083 707.995 349.878 691.932C338.006 655.294 338.902 619.223 340.366 598.659C342.016 575.488 345.802 555.544 348.161 544.719C350.504 533.969 353.27 516.731 355.116 500.066C358.31 471.229 358.499 459.806 360.298 434.371C361.298 420.221 360.007 414.183 359.716 412.851C359.489 411.815 359.162 410.59 358.326 408.095C357.784 406.477 357.339 405.224 356.332 402.336C355.516 399.994 354.135 396.018 352.783 391.64C351.041 385.997 349.395 380.43 347.981 375.648C347.97 375.611 347.959 375.573 347.947 375.535C343.209 372.879 337.882 369.671 332.302 365.868C332.173 365.805 332.055 365.747 331.916 365.68C329.898 364.701 323.817 361.869 316.177 357.613L309.859 357.317H309.857C293.771 356.531 261.206 356.846 238.15 357.517C218.778 361.239 196.845 366.119 160.653 370.499L153.229 371.398L153.169 371.405L145.63 371.412C113.264 371.441 53.5609 369.555 -3.94043 367.756L-129.879 363.815L-121.998 111.938L3.94043 115.88C58.8108 117.597 108.95 119.147 137.908 119.38C163.721 116.028 166.388 114.245 202.506 107.838L211 106.331L211.068 106.318L211.137 106.316L219.756 105.99C244.26 105.064 292.663 104.175 322.166 105.618C342.26 106.601 388.97 105.043 439.264 137.654C439.886 137.963 440.753 138.391 441.915 138.955C446.386 141.124 458.688 146.942 472.138 156.169C472.914 156.545 473.723 156.931 475.074 157.575C476.335 158.177 478.101 159.02 479.977 159.938C483.492 161.66 488.44 164.152 493.987 167.323L493.99 167.325L495.103 167.966L495.107 167.969L496.71 168.904L496.713 168.905C513.964 179.043 550.332 202.802 571.342 250.658C581.136 272.967 590.614 307.705 593.548 317.231C593.599 317.384 593.8 317.983 594.297 319.409C594.859 321.021 596.097 324.531 597.271 328.034C599.866 335.781 603.1 346.224 605.896 359.011C611.652 385.326 614.256 415.56 611.669 452.146C610.351 470.79 609.513 492.34 605.585 527.808C603.037 550.812 599.038 577.021 594.383 598.381C594.052 599.899 593.495 602.658 592.954 606.105C592.407 609.593 591.967 613.205 591.729 616.559C591.621 618.065 591.572 619.302 591.553 620.273C598.079 640.47 601.638 651.625 605.65 660.707C608.372 666.867 610.544 672.661 612.253 677.615C620.029 670.924 631.296 662.549 645.699 655.758C672.502 643.12 709.919 636.318 749.607 650.433L749.614 650.436L751.503 651.122L753.003 651.688L753.007 651.688C783.588 663.361 808.907 682.24 827.466 701.294L828.345 702.201L828.347 702.203L829.234 703.131L830.222 704.149C836.271 710.335 858.376 732.57 873.812 761.87L874.22 762.606C877.065 767.658 891.92 793.395 900.571 818.819L900.573 818.823L901.88 822.713L902.666 825.003C906.536 836.139 909.501 842.74 914.593 854.938C916.842 860.326 918.766 865.497 919.973 868.752C921.438 872.704 922.15 874.658 923 876.848C923.282 877.575 923.509 878.139 923.688 878.576C927.119 884.24 930.75 890.495 932.946 894.221C933.747 895.58 934.492 896.832 935.188 897.995C940.033 898.012 944.728 897.867 948.542 897.579C952.958 897.246 956.993 896.978 960.218 896.764C962.636 896.603 964.494 896.477 966.094 896.361C967.58 895.509 968.967 894.718 970.221 894.007C971.176 893.465 972.165 892.906 972.977 892.446C973.691 891.628 974.336 890.896 974.887 890.27C977.694 887.074 978.876 885.724 979.998 884.368C980.893 883.287 981.195 882.857 981.246 882.783C981.272 882.746 981.274 882.744 981.279 882.736C981.286 882.726 981.3 882.701 981.335 882.636C984.004 877.697 986.597 873.385 988.465 870.34C990.131 867.624 992.328 864.133 993.256 862.646C994.593 860.504 995.471 859.049 996.076 858.017C996.151 856.357 996.17 855.332 996.168 854.722C996.167 854.402 996.16 854.198 996.154 854.079L996.144 853.915C996.143 853.902 996.123 853.587 995.97 852.729C995.822 851.905 995.522 850.418 994.917 848.043L994.638 846.965L991.771 836.136C977.639 782.896 966.593 743.402 959.677 726.653C954.966 715.246 951.956 706.265 949.916 699.989C948.845 696.694 948.611 695.943 948.257 694.891C942.716 681.428 940.014 674.667 937.101 668.359C935.465 664.818 934.587 663.304 934.38 662.96C920.113 643.152 906.179 617.617 892.606 589.131C877.362 557.137 857.893 506.917 849.68 471.292L849.679 471.289L849.297 469.608V469.604C842.625 439.733 838.849 418.928 833.141 383.179L833.14 383.176L832.924 381.79V381.786C830.739 367.449 830.357 354.528 830.23 345.884C830.163 341.263 830.164 336.547 830.161 332.774C830.158 328.719 830.154 325.158 830.106 321.454C829.934 307.948 829.188 291.93 825.301 269.596C822.648 254.355 819.697 231.775 819.842 207.722C819.946 190.355 821.071 144.008 848.701 102.529L849.707 101.003C850.413 99.9106 850.651 99.4779 853.726 94.7744C856.25 90.9136 860.443 84.6072 865.65 77.8809C870.628 71.4517 878.951 61.4436 890.591 51.6211C898.818 44.6784 911.669 35.299 929.034 28.1582C933.787 25.2496 940.725 20.8018 949.831 14.7734C969.332 1.86359 994.369 -15.341 1020.14 -33.1504C1045.36 -50.578 1071.48 -68.7254 1091.46 -82.293C1101.36 -89.0166 1110.86 -95.3761 1118.55 -100.269C1122.18 -102.581 1126.95 -105.556 1131.83 -108.296C1134.07 -109.553 1138.41 -111.938 1143.76 -114.364C1146.38 -115.551 1151.2 -117.647 1157.38 -119.665C1161.12 -120.889 1176.56 -126 1197 -126H1323V126Z"/>
</defs>
</svg>
